<svg width="1506" height="960" viewBox="0 0 1506 960" fill="none" xmlns="http://www.w3.org/2000/svg">
<g clip-path="url(#clip0)">
<path d="M1579 735.715C1499.22 647.085 1406.87 511.414 1233.74 539.97C1204.88 545.688 1177.94 554.257 1148.13 554.523C1117.29 555.995 1085.9 552.455 1055.21 545.986C1024.49 539.532 994.473 530.164 966.334 519.983C949.017 513.544 931.167 508.109 912.988 503.723C890.26 498.24 866.999 494.402 843.612 492.397C660.455 511.398 658.526 684.194 596.961 787.016C571.959 827.007 529.625 889.838 468.076 872.701C318.015 831.284 319.944 679.917 227.605 579.946C189.129 535.678 142.952 491.41 70.3133 486.429C47.005 483.923 23.8222 480.602 0.796192 475.574C-22.12 471.391 -45.2401 467.804 -69.5052 466.598C-105.268 465 -125.407 465 -125.407 465" stroke="white" stroke-miterlimit="10"/>
<path d="M1577.2 755.123C1499.37 668.655 1408.3 534.707 1238.99 564.11C1208.92 569.326 1181.52 576.751 1151.43 576.109C1119.72 575.435 1088.47 569.482 1055.38 562.59C1023.96 556.011 994.221 546.847 965.486 538.858C947.275 533.799 928.516 532.17 908.376 528.316C885.491 523.93 862.685 519.513 839.408 517.633C660.266 536.274 659.325 705.388 597.368 805.218C573.041 844.426 530.722 905.534 470.161 888.788C323.222 848.389 322.924 701.519 233.925 603.177C195.167 560.334 150.166 518.103 78.9706 511.931C55.6623 509.91 32.7775 505.869 9.6731 501.31C-13.196 496.799 -36.5201 493.776 -60.7852 492.288C-98.9788 489.938 -122.161 487.369 -125.706 489.139" stroke="white" stroke-miterlimit="10"/>
<path d="M1575.39 774.547C1499.51 690.24 1410.49 560.569 1244.24 588.249C1213.11 593.434 1185.06 599.793 1154.74 597.71C1122.1 595.47 1091.05 586.541 1055.55 579.21C1023.43 572.506 993.766 563.483 964.639 557.75C945.314 553.959 926.006 556.262 903.748 552.925C880.817 549.494 858.34 544.623 835.204 542.9C660.078 561.149 658.98 726.175 597.776 823.42C573.683 861.704 531.804 921.23 472.262 904.876C328.444 865.479 327.801 722.196 240.277 626.407C202.068 584.599 157.585 543.401 87.6598 537.448C64.4299 535.475 41.6078 531.527 18.5975 527.063C-4.38139 522.598 -27.7523 519.795 -52.0174 517.993C-92.6736 514.97 -118.884 509.769 -125.973 513.294" stroke="white" stroke-miterlimit="10"/>
<path d="M1573.59 793.955C1499.65 711.81 1412.66 586.322 1249.5 612.372C1217.3 617.51 1188.58 622.773 1158.05 619.28C1124.46 615.442 1093.63 603.568 1055.74 595.799C1022.91 588.985 993.045 580.213 963.808 576.61C943.119 574.057 923.622 580.307 899.153 577.503C876.284 574.887 854.027 569.717 831.016 568.12C659.922 585.993 658.651 746.946 598.184 841.591C574.311 878.935 532.887 936.878 474.365 920.916C333.652 882.538 332.696 742.811 246.615 649.575C208.954 608.785 165.004 568.652 96.3343 562.903C73.1829 560.961 50.4235 557.139 27.5074 552.753C4.43433 548.351 -18.9995 545.719 -43.2489 543.636C-86.3834 539.923 -115.605 532.107 -126.24 537.401" stroke="white" stroke-miterlimit="10"/>
<path d="M1571.77 813.379C1499.77 733.396 1414.77 611.98 1254.74 636.511C1221.45 641.618 1192.04 645.737 1161.36 640.881C1126.75 635.399 1096.18 620.69 1055.91 612.419C1022.36 605.527 991.163 601.203 962.945 595.501C940.75 597.365 919.34 609.881 894.51 602.112C873.413 595.501 849.682 594.843 826.781 593.371C659.702 610.868 658.274 767.764 598.561 859.793C574.923 896.213 533.937 952.574 476.435 937.004C338.844 899.628 337.542 763.472 252.92 672.806C215.809 633.049 172.376 593.966 104.992 588.405C81.9193 586.494 59.2228 582.782 36.385 578.49C13.2179 574.135 -10.2945 571.675 -34.5282 569.326C-80.1409 564.893 -112.374 554.507 -126.538 561.541" stroke="white" stroke-miterlimit="10"/>
<path d="M1569.96 832.788C1499.91 754.966 1416.86 637.561 1259.99 660.65C1225.63 665.71 1195.49 668.639 1164.67 662.467C1129 655.324 1098.75 637.733 1056.1 629.023C1021.84 622.021 990.331 618.951 962.114 614.377C938.695 618.309 916.799 635.227 889.914 626.705C869.084 620.095 845.368 619.938 822.609 618.622C659.545 635.743 657.945 788.567 598.984 877.995C575.582 913.491 535.051 968.27 478.553 953.091C344.067 916.734 342.436 784.134 259.273 696.036C222.71 657.298 179.795 619.28 113.682 613.923C90.6874 612.059 68.0536 608.456 45.31 604.242C22.0488 599.95 -1.52619 597.616 -25.7599 595.031C-73.8666 589.878 -109.096 576.907 -126.804 585.711" stroke="white" stroke-miterlimit="10"/>
<path d="M1568.16 852.212C1500.06 776.552 1418.92 663.062 1265.25 684.789C1229.78 689.802 1198.95 691.525 1167.98 684.053C1131.25 675.202 1101.32 654.792 1056.27 645.628C1021.31 638.516 989.5 636.715 961.267 633.253C936.641 639.252 916.611 648.197 885.303 651.298C863.438 647.57 841.039 645.048 818.405 643.858C659.372 660.587 657.6 809.354 599.392 896.182C576.209 930.754 536.133 983.951 480.654 969.163C349.29 933.808 347.314 804.779 265.625 719.251C229.596 681.547 187.23 644.594 122.372 639.409C99.4398 637.576 76.8844 634.083 54.2192 629.979C30.8639 625.734 7.22613 623.525 -17.0076 620.706C-67.6083 614.816 -105.833 599.276 -127.087 609.834" stroke="white" stroke-miterlimit="10"/>
<path d="M1566.36 871.62C1500.2 798.122 1420.94 688.47 1270.49 708.912C1233.94 713.878 1202.36 714.348 1171.28 705.639C1133.47 695.049 1103.88 671.835 1056.44 662.232C1020.78 655.011 988.669 654.478 960.419 652.129C934.57 660.211 914.179 671.537 880.676 675.892C858.967 672.461 836.71 670.143 814.186 669.093C659.168 685.447 657.208 830.156 599.768 914.368C576.821 948.016 537.153 999.709 482.725 985.235C354.372 951.086 352.27 825.363 271.93 742.466C236.497 705.748 194.602 669.892 131.014 664.911C108.161 663.125 85.6836 659.741 63.0968 655.716C39.6473 651.533 15.9469 649.434 -8.28687 646.395C-61.3815 639.754 -102.587 621.661 -127.401 633.973" stroke="white" stroke-miterlimit="10"/>
<path d="M1564.55 891.044C1500.34 819.708 1422.95 713.831 1275.74 733.051C1238.1 737.97 1205.82 737.156 1174.59 727.224C1135.7 714.865 1106.45 688.893 1056.62 678.837C1020.23 671.49 987.837 672.226 959.557 671.004C932.484 681.155 911.732 694.893 876.048 700.485C854.481 697.352 832.365 695.253 809.966 694.329C658.98 710.307 656.831 850.943 600.16 932.555C577.432 965.278 538.203 1015.4 484.811 1001.29C359.548 968.207 356.882 846.118 278.251 765.649C243.258 730.013 202.005 695.175 139.672 690.381C116.897 688.627 94.4829 685.369 71.9903 681.421C48.4467 677.286 24.6835 675.281 0.449786 672.054C-55.1388 664.644 -99.3399 644.014 -127.683 658.097" stroke="white" stroke-miterlimit="10"/>
<path d="M1562.75 910.452C1500.48 841.278 1424.92 739.114 1281 757.191C1242.24 762.062 1209.27 759.948 1177.9 748.826C1137.93 734.665 1109.02 705.952 1056.81 695.457C1019.71 688 987.022 690.005 958.726 689.896C930.429 702.114 909.317 718.249 871.437 725.078C850.011 722.243 828.052 720.363 805.779 719.58C658.808 735.182 656.471 871.761 600.584 950.757C578.076 982.572 539.302 1031.12 486.929 1017.38C364.756 985.345 361.886 866.701 284.62 788.88C250.222 754.23 209.44 720.504 148.393 715.883C125.697 714.176 103.345 711.012 80.9311 707.158C57.2777 703.085 33.4675 701.159 9.23382 697.744C-48.8644 689.551 -96.0457 666.399 -127.934 682.236" stroke="white" stroke-miterlimit="10"/>
<path d="M1560.95 929.876C1500.62 862.863 1426.9 764.349 1286.25 781.33C1246.39 786.139 1212.72 782.708 1181.21 770.411C1140.17 754.418 1111.59 723.011 1056.98 712.061C1019.18 704.479 986.191 707.753 957.879 708.771C928.359 723.058 906.886 741.589 866.826 749.672C845.556 747.118 823.723 745.458 801.575 744.816C658.619 760.042 656.078 892.548 600.976 968.944C578.687 999.834 540.368 1046.81 489.015 1033.45C369.948 1002.47 366.732 887.347 290.941 812.095C257.077 778.479 216.828 745.818 157.052 741.385C134.434 739.709 112.145 736.67 89.8247 732.895C66.0773 728.885 42.2043 727.021 17.9706 723.433C-42.6216 714.442 -92.7988 688.784 -128.232 706.39" stroke="white" stroke-miterlimit="10"/>
<path d="M1559.14 949.285C1500.76 884.434 1428.84 789.522 1291.5 805.453C1250.53 810.199 1216.18 805.422 1184.51 791.997C1142.43 774.14 1114.17 740.054 1057.17 728.665C1018.66 720.974 985.375 725.517 957.047 727.647C926.319 744.017 904.486 764.944 862.23 774.265C841.101 772.009 819.409 770.568 797.387 770.051C658.462 784.901 655.702 913.35 601.399 987.13C579.33 1017.11 541.45 1062.51 491.116 1049.52C375.139 1019.59 371.579 907.993 297.278 835.31C263.946 802.712 224.231 771.132 165.725 766.871C143.186 765.242 120.96 762.313 98.7179 758.616C74.8763 754.669 50.9406 752.867 26.7225 749.108C-36.3636 739.302 -89.5366 711.152 -128.499 730.514" stroke="white" stroke-miterlimit="10"/>
<path d="M1557.34 968.709C1500.9 906.019 1430.77 814.648 1296.76 829.592C1254.67 834.291 1219.67 828.151 1187.82 813.583C1144.71 793.861 1116.74 757.097 1057.34 745.27C1018.13 737.453 984.543 743.265 956.2 746.523C924.249 764.96 902.054 788.285 857.602 798.858C836.615 796.9 815.08 795.678 793.167 795.302C658.258 809.776 655.294 934.169 601.776 1005.33C579.926 1034.39 542.501 1078.22 493.187 1065.61C380.3 1036.72 376.394 928.655 303.599 858.54C270.801 826.96 231.635 796.462 174.384 792.389C151.922 790.791 129.759 787.971 107.612 784.369C83.6758 780.468 59.6774 778.729 35.4593 774.798C-30.1208 764.177 -86.2896 733.537 -128.797 754.669" stroke="white" stroke-miterlimit="10"/>
<path d="M1555.53 988.117C1501.04 927.589 1432.7 839.727 1302.01 853.731C1258.82 858.352 1223.16 850.864 1191.13 835.184C1147 813.567 1119.31 774.155 1057.53 761.89C1017.61 753.964 983.727 761.044 955.353 765.414C922.178 785.919 899.623 811.64 852.991 823.467C832.145 821.791 810.75 820.789 788.979 820.554C658.086 834.652 654.901 954.987 602.199 1023.53C580.569 1051.68 543.599 1093.93 495.304 1081.68C385.523 1053.85 381.256 949.3 309.951 881.755C277.687 851.193 239.054 821.775 183.073 817.891C160.69 816.34 138.59 813.63 116.536 810.105C92.5063 806.268 68.4608 804.576 44.227 800.487C-23.847 789.021 -82.9962 755.922 -129.064 778.808" stroke="white" stroke-miterlimit="10"/>
<path d="M1553.73 1007.54C1501.2 949.175 1434.6 864.775 1307.27 877.87C1262.96 882.429 1226.68 873.562 1194.46 856.77C1149.32 833.242 1121.9 791.198 1057.72 778.494C1017.09 770.443 982.897 778.808 954.522 784.29C920.124 806.878 897.208 834.996 848.38 848.06C827.691 846.682 806.422 845.899 784.776 845.789C657.914 859.511 654.479 975.789 602.608 1041.72C581.181 1068.96 544.682 1109.63 497.406 1097.75C390.731 1070.97 386.088 969.946 316.289 904.954C284.557 875.411 246.458 847.089 191.763 843.361C169.459 841.842 147.421 839.257 125.446 835.826C101.322 832.051 77.2139 830.391 52.9802 826.161C-17.5721 813.833 -79.7328 778.291 -129.345 802.947" stroke="white" stroke-miterlimit="10"/>
<path d="M1551.93 1026.95C1501.34 970.745 1436.5 889.76 1312.51 901.994C1267.08 906.474 1230.17 896.229 1197.75 878.356C1151.62 852.901 1124.46 808.257 1057.89 795.099C1016.56 786.937 982.065 796.556 953.675 803.166C918.069 827.822 894.777 858.336 843.768 872.654C823.221 871.573 802.108 870.993 780.572 871.04C657.725 884.387 654.055 996.607 603 1059.92C581.777 1086.24 545.748 1125.34 499.492 1113.84C395.907 1088.1 390.888 990.608 322.61 928.185C291.396 899.66 253.846 872.419 200.422 868.879C178.195 867.406 156.236 864.931 134.339 861.579C110.106 857.867 85.9662 856.253 61.7168 851.867C-11.3138 838.677 -76.486 800.691 -129.628 827.101" stroke="white" stroke-miterlimit="10"/>
<path d="M1550.12 1046.37C1501.48 992.331 1438.4 914.729 1317.76 926.133C1271.21 930.534 1233.7 918.927 1201.06 899.941C1153.96 872.56 1127.03 825.3 1058.06 811.703C1016.02 803.417 981.234 814.319 952.828 822.042C915.999 848.765 892.346 881.677 839.141 897.247C818.735 896.464 797.763 896.104 776.353 896.276C657.521 909.231 653.585 1017.41 603.392 1078.11C582.373 1103.53 546.815 1141.03 501.579 1129.91C401.099 1105.21 395.687 1011.25 328.947 951.399C298.251 923.877 261.249 897.748 209.096 894.38C186.948 892.939 165.051 890.59 143.249 887.316C118.921 883.666 94.7343 882.068 70.4692 877.557C-5.03969 863.49 -73.2235 823.076 -129.91 851.256" stroke="white" stroke-miterlimit="10"/>
<path d="M1548.3 1065.78C1501.61 1013.9 1440.26 939.635 1323 950.272C1275.33 954.595 1237.22 941.593 1204.36 921.527C1156.31 892.203 1129.58 842.343 1058.23 828.307C1015.49 819.896 980.402 832.067 951.965 840.917C913.912 869.725 889.898 905.017 834.514 921.84C814.248 921.339 793.418 921.214 772.149 921.511C657.349 934.09 653.129 1038.21 603.783 1096.3C582.969 1120.81 547.881 1156.71 503.664 1145.98C406.29 1122.33 400.471 1031.9 335.267 974.614C305.105 948.11 268.636 923.078 217.753 919.867C195.669 918.473 173.85 916.217 152.126 913.037C127.704 909.45 103.455 907.883 79.1897 903.231C1.20261 888.256 -69.9928 845.445 -130.224 875.379" stroke="white" stroke-miterlimit="10"/>
<path d="M1546.5 1085.21C1501.75 1035.49 1442.13 964.542 1328.25 974.411C1279.46 978.64 1240.78 964.276 1207.67 943.129C1158.68 911.846 1132.16 859.402 1058.41 844.928C1014.96 836.406 979.571 849.846 951.118 859.809C911.842 890.684 887.467 928.388 829.902 946.449C809.794 946.246 789.105 946.324 767.945 946.763C657.16 958.965 652.659 1059.03 604.191 1114.5C583.565 1138.11 548.948 1172.43 505.766 1162.07C411.498 1139.45 405.271 1052.56 341.604 997.845C311.943 972.359 276.04 948.423 226.427 945.384C204.421 944.037 182.665 941.891 161.035 938.789C136.519 935.265 112.223 933.714 87.9422 928.936C7.49244 913.053 -66.7304 867.845 -130.507 899.534" stroke="white" stroke-miterlimit="10"/>
<path d="M1544.7 1104.61C1501.89 1057.06 1444 989.386 1333.51 998.534C1283.58 1002.67 1244.34 986.927 1210.98 964.699C1161.07 931.459 1134.73 876.429 1058.59 861.516C1014.44 852.87 975.744 864.085 950.287 878.669C902.713 905.91 885.068 951.713 825.291 971.027C805.324 971.121 784.776 971.419 763.742 971.998C656.972 983.825 652.173 1079.83 604.584 1132.69C584.146 1155.38 550.015 1188.12 507.853 1178.13C416.69 1156.54 410.039 1073.19 347.941 1021.04C318.798 996.56 283.444 973.753 235.117 970.855C213.189 969.539 191.497 967.518 169.945 964.495C145.335 961.033 120.991 959.514 96.7105 954.579C13.7982 937.771 -63.4361 890.182 -130.757 923.642" stroke="white" stroke-miterlimit="10"/>
<path d="M1542.89 1124.04C1502.03 1078.64 1445.86 1014.23 1338.76 1022.67C1287.71 1026.7 1247.9 1009.59 1214.29 986.3C1163.48 951.086 1137.3 893.488 1058.77 878.136C1013.91 869.364 974.897 882.115 949.44 897.56C900.675 927.135 882.636 975.069 820.68 995.636C800.853 996.012 780.447 996.545 759.539 997.25C656.8 1008.7 651.671 1100.65 604.992 1150.89C584.726 1172.69 551.113 1203.82 509.939 1194.22C421.882 1173.66 414.792 1093.85 354.263 1044.26C325.621 1020.79 290.832 999.082 243.776 996.357C221.926 995.088 200.296 993.177 178.839 990.232C154.134 986.848 129.744 985.329 105.447 980.269C20.0726 962.537 -60.1889 912.567 -131.055 947.781" stroke="white" stroke-miterlimit="10"/>
<path d="M1541.09 1143.45C1502.17 1100.21 1447.71 1039.03 1344.02 1046.81C1291.83 1050.73 1251.48 1032.26 1217.6 1007.89C1165.9 970.698 1139.87 910.531 1058.95 894.741C1013.39 885.859 974.113 900.114 948.593 916.436C898.698 948.376 880.205 998.424 816.052 1020.23C796.367 1020.9 776.118 1021.64 755.335 1022.49C656.612 1033.56 651.137 1121.45 605.399 1169.07C585.306 1189.99 552.195 1219.51 512.041 1210.29C427.089 1190.75 419.544 1114.51 360.599 1067.47C332.46 1045.01 298.235 1024.43 252.449 1021.86C230.678 1020.64 209.127 1018.84 187.748 1015.97C162.934 1012.65 138.512 1011.14 114.199 1005.96C26.3776 987.271 -56.9268 934.952 -131.338 971.936" stroke="white" stroke-miterlimit="10"/>
<path d="M1539.28 1162.87C1502.31 1121.8 1449.56 1063.81 1349.27 1070.95C1295.94 1074.74 1255.05 1054.91 1220.9 1029.49C1168.33 990.326 1142.45 927.574 1059.13 911.361C1012.86 902.354 973.328 918.112 947.746 935.328C896.769 969.617 877.774 1021.78 811.441 1044.84C791.913 1045.81 771.789 1046.77 751.131 1047.75C656.423 1058.45 650.588 1142.29 605.791 1187.29C585.871 1207.31 553.261 1235.23 514.127 1226.39C432.297 1207.89 424.266 1135.19 366.936 1090.72C339.283 1069.28 305.638 1049.8 261.123 1047.38C239.415 1046.2 217.942 1044.53 196.641 1041.74C171.733 1038.49 147.28 1036.97 122.936 1031.68C32.6676 1012.04 -53.6798 957.368 -131.62 996.106" stroke="white" stroke-miterlimit="10"/>
<path d="M1537.48 1182.28C1502.46 1143.37 1451.42 1088.56 1354.51 1095.07C1300.05 1098.74 1258.63 1077.56 1224.2 1051.06C1170.76 1009.91 1145 944.601 1059.3 927.95C1012.32 918.817 972.576 936.08 946.899 954.188C894.902 990.858 875.343 1045.1 806.829 1069.4C787.442 1070.67 767.459 1071.83 746.927 1072.96C656.251 1083.28 650.008 1163.04 606.199 1205.45C586.436 1224.57 554.344 1250.89 516.229 1242.43C437.504 1224.95 428.987 1155.82 373.273 1113.9C346.106 1093.46 313.042 1075.12 269.797 1072.85C248.167 1071.72 226.757 1070.14 205.551 1067.44C180.548 1064.25 156.048 1062.76 131.689 1057.34C38.9887 1036.71 -50.4174 979.721 -131.902 1020.23" stroke="white" stroke-miterlimit="10"/>
<path d="M1535.68 1201.7C1502.6 1164.95 1453.25 1113.31 1359.77 1119.21C1304.16 1122.74 1262.24 1100.23 1227.52 1072.66C1173.22 1029.53 1147.59 961.66 1059.49 944.57C1011.8 935.312 971.854 954.078 946.068 973.079C893.083 1012.13 877.774 1077.84 802.218 1094.01C783.616 1097.99 763.146 1096.95 742.724 1098.21C656.063 1108.15 649.412 1183.86 606.592 1223.65C586.985 1241.88 555.411 1266.59 518.315 1258.5C442.712 1242.04 433.677 1176.48 379.595 1137.12C352.898 1117.68 320.43 1100.4 278.472 1098.33C256.92 1097.22 235.572 1095.78 214.444 1093.16C189.348 1090.05 164.8 1088.54 140.426 1083.01C45.2944 1061.4 -47.1701 1002.09 -132.2 1044.35" stroke="white" stroke-miterlimit="10"/>
<path d="M1533.87 1221.11C1502.74 1186.52 1455.1 1138.01 1365.02 1143.35C1308.29 1146.72 1265.83 1122.88 1230.83 1094.24C1175.7 1049.13 1150.18 978.703 1059.68 961.174C1011.29 951.807 971.148 972.045 945.236 991.955C891.31 1033.39 875.453 1101.07 797.622 1118.6C779.192 1122.75 758.833 1122.06 738.552 1123.46C655.906 1133.03 648.801 1204.66 607.031 1241.85C587.55 1259.19 556.54 1282.28 520.448 1274.59C447.966 1259.13 438.383 1197.18 385.963 1160.35C359.737 1141.93 327.864 1125.79 287.177 1123.85C265.704 1122.79 244.434 1121.45 223.385 1118.92C198.194 1115.88 173.615 1114.36 149.209 1108.72C51.6625 1086.11 -43.8607 1024.49 -132.451 1068.52" stroke="white" stroke-miterlimit="10"/>
</g>
<defs>
<clipPath id="clip0">
<rect width="1506" height="960" fill="white"/>
</clipPath>
</defs>
</svg>
