<svg width="1440" height="869" viewBox="0 0 1440 869" fill="none" xmlns="http://www.w3.org/2000/svg">
<mask id="mask0" mask-type="alpha" maskUnits="userSpaceOnUse" x="0" y="0" width="1440" height="869">
<rect width="1440" height="869" fill="white"/>
</mask>
<g mask="url(#mask0)">
<rect opacity="0.05" x="320" y="71" width="314" height="33" rx="16.5" fill="#131313"/>
<rect opacity="0.05" x="226" y="469" width="195" height="31" rx="15.5" fill="#131313"/>
<circle opacity="0.05" cx="963" cy="544" r="106" fill="#131313"/>
<path d="M233.313 192.282L177 801.675L198.012 199.006L212.301 196.284M233.313 192.282L294.905 805.037M233.313 192.282L212.301 196.284M233.313 192.282L287.716 199.006M294.905 805.037L314 995L308.117 201.528L294.905 199.895M294.905 805.037V199.895M294.905 199.895L287.716 199.006M212.301 196.284V178.833C216.503 176.872 229.615 172.949 248.442 172.949M248.442 172.949V4M248.442 172.949C252.864 172.949 257.095 173.227 261.049 173.686M287.716 199.006L287.945 180.514C283.872 178.585 273.928 175.179 261.049 173.686M261.049 173.686V64.5191" stroke="#131313"/>
<path d="M431 933.5V605H548V941" stroke="#131313"/>
<path d="M366 965.5V637H483V973" stroke="#131313"/>
<path d="M125 912.5V584H212V920" stroke="#131313"/>
<rect x="586" y="473" width="112" height="442" stroke="#131313"/>
<rect x="727" y="722" width="33" height="312" stroke="#131313"/>
<rect x="749" y="544" width="200" height="490" stroke="#131313"/>
<rect x="997" y="781" width="200" height="253" stroke="#131313"/>
<rect x="34" y="646" width="206" height="269" stroke="#131313"/>
<line x1="491" y1="612.5" x2="540" y2="612.5" stroke="#131313"/>
<line x1="491" y1="620.5" x2="540" y2="620.5" stroke="#131313"/>
<line x1="491" y1="628.5" x2="540" y2="628.5" stroke="#131313"/>
<line x1="491" y1="636.5" x2="540" y2="636.5" stroke="#131313"/>
<line x1="491" y1="644.5" x2="540" y2="644.5" stroke="#131313"/>
<line x1="491" y1="652.5" x2="540" y2="652.5" stroke="#131313"/>
<line x1="491" y1="660.5" x2="540" y2="660.5" stroke="#131313"/>
<line x1="491" y1="668.5" x2="540" y2="668.5" stroke="#131313"/>
<line x1="491" y1="676.5" x2="540" y2="676.5" stroke="#131313"/>
<line x1="491" y1="684.5" x2="540" y2="684.5" stroke="#131313"/>
<line x1="491" y1="692.5" x2="540" y2="692.5" stroke="#131313"/>
<line x1="491" y1="700.5" x2="540" y2="700.5" stroke="#131313"/>
<line x1="491" y1="708.5" x2="540" y2="708.5" stroke="#131313"/>
<line x1="491" y1="716.5" x2="540" y2="716.5" stroke="#131313"/>
<line x1="491" y1="724.5" x2="540" y2="724.5" stroke="#131313"/>
<line x1="491" y1="732.5" x2="540" y2="732.5" stroke="#131313"/>
<line x1="491" y1="740.5" x2="540" y2="740.5" stroke="#131313"/>
<line x1="491" y1="748.5" x2="540" y2="748.5" stroke="#131313"/>
<line x1="491" y1="756.5" x2="540" y2="756.5" stroke="#131313"/>
<line x1="491" y1="764.5" x2="540" y2="764.5" stroke="#131313"/>
<line x1="491" y1="772.5" x2="540" y2="772.5" stroke="#131313"/>
<line x1="491" y1="780.5" x2="540" y2="780.5" stroke="#131313"/>
<line x1="491" y1="788.5" x2="540" y2="788.5" stroke="#131313"/>
<line x1="491" y1="796.5" x2="540" y2="796.5" stroke="#131313"/>
<line x1="491" y1="804.5" x2="540" y2="804.5" stroke="#131313"/>
<line x1="491" y1="812.5" x2="540" y2="812.5" stroke="#131313"/>
<line x1="491" y1="820.5" x2="540" y2="820.5" stroke="#131313"/>
<line x1="491" y1="828.5" x2="540" y2="828.5" stroke="#131313"/>
<line x1="491" y1="836.5" x2="540" y2="836.5" stroke="#131313"/>
<line x1="491" y1="844.5" x2="540" y2="844.5" stroke="#131313"/>
<line x1="491" y1="852.5" x2="540" y2="852.5" stroke="#131313"/>
<line x1="491" y1="860.5" x2="540" y2="860.5" stroke="#131313"/>
<line x1="602.5" y1="481" x2="602.5" y2="888" stroke="#131313"/>
<line x1="618.5" y1="481" x2="618.5" y2="888" stroke="#131313"/>
<line x1="634.5" y1="481" x2="634.5" y2="888" stroke="#131313"/>
<line x1="650.5" y1="481" x2="650.5" y2="888" stroke="#131313"/>
<line x1="666.5" y1="481" x2="666.5" y2="888" stroke="#131313"/>
<line x1="650.5" y1="481" x2="650.5" y2="888" stroke="#131313"/>
<line x1="682.5" y1="481" x2="682.5" y2="888" stroke="#131313"/>
<rect opacity="0.05" x="572" y="26" width="94" height="17" rx="8.5" fill="#131313"/>
<line y1="868.5" x2="1440" y2="868.5" stroke="#131313"/>
</g>
</svg>
