<svg width="91" height="30" fill="none" xmlns="http://www.w3.org/2000/svg"><path fill-rule="evenodd" clip-rule="evenodd" d="M56.443 18.624a14.362 14.362 0 00-3.545-1.475 47.257 47.257 0 01-4.173-1.395 8.29 8.29 0 01-3.542-2.65c-.976-1.23-1.465-2.79-1.467-4.674 0-2.328.934-4.315 2.8-5.96C48.385.826 50.807.002 53.785 0c1.15-.005 2.295.13 3.411.404.934.215 1.84.538 2.7.964.64.33 1.259.706 1.846 1.122a6.02 6.02 0 011.133.994l.361.403-3.685 3.92a9.899 9.899 0 00-.671-.691c-.288-.275-.892-.64-1.814-1.095a6.381 6.381 0 00-2.86-.676c-1.176 0-2.122.3-2.838.904a2.757 2.757 0 00-1.075 2.186c0 .963.486 1.735 1.456 2.316a14.97 14.97 0 003.533 1.477c1.384.403 2.774.873 4.173 1.41a8.266 8.266 0 013.563 2.65c.976 1.231 1.464 2.789 1.464 4.675 0 2.661-.967 4.836-2.898 6.521-1.934 1.686-4.6 2.525-8 2.516a15.258 15.258 0 01-3.882-.491 13.19 13.19 0 01-3.089-1.182 18.377 18.377 0 01-2.137-1.385 8.39 8.39 0 01-1.325-1.184l-.462-.5 3.714-3.692c.187.215.451.492.792.832.341.34 1.1.798 2.278 1.375a8.303 8.303 0 003.692.863c1.477 0 2.64-.348 3.481-1.044a3.3 3.3 0 001.254-2.65c0-.958-.485-1.73-1.456-2.318zM90.5 29.469V23.91H75.1v-6.4h11.737v-5.556H75.101V6.176H90.5V.6H68.9v28.869h21.6zM7.887.6H.5l10.788 28.869h7.473l6.902-18.662L21.863.6 14.92 19.575 7.887.6zm23.506 0h6.202v28.869h-6.202V.6z" fill="#000"/></svg>